<svg xmlns="http://www.w3.org/2000/svg" style="display: none;">
  <defs>
    <symbol id="Default" width="32" height="32" fill="none" viewBox="0 0 32 32">
      <g clip-path="url(#a)">
        <path fill="#750000" d="M3.2 32a12.19 12.19 0 0 1 24.38 0h-3.047a9.143 9.143 0 0 0-18.285 0H3.2Zm12.19-13.714a9.14 9.14 0 0 1-9.142-9.143A9.14 9.14 0 0 1 15.39 0a9.14 9.14 0 0 1 9.143 9.143 9.14 9.14 0 0 1-9.143 9.143Zm0-3.048a6.094 6.094 0 0 0 6.096-6.095 6.094 6.094 0 0 0-6.096-6.095 6.094 6.094 0 0 0-6.095 6.095 6.094 6.094 0 0 0 6.095 6.095Z"/>
      </g>
      <defs>
        <clipPath id="a">
          <path fill="#fff" d="M0 0h32v32H0z"/>
        </clipPath>
      </defs>
    </symbol>
    <symbol id="hover" width="32" height="32" fill="none" viewBox="0 0 32 32">
      <g clip-path="url(#a)">
        <path fill="#7D7D7D" d="M3.2 32a12.19 12.19 0 0 1 24.38 0h-3.047a9.143 9.143 0 0 0-18.285 0H3.2Zm12.19-13.714a9.14 9.14 0 0 1-9.142-9.143A9.14 9.14 0 0 1 15.39 0a9.14 9.14 0 0 1 9.143 9.143 9.14 9.14 0 0 1-9.143 9.143Zm0-3.048a6.094 6.094 0 0 0 6.096-6.095 6.094 6.094 0 0 0-6.096-6.095 6.094 6.094 0 0 0-6.095 6.095 6.094 6.094 0 0 0 6.095 6.095Z"/>
      </g>
      <defs>
        <clipPath id="a">
          <path fill="#fff" d="M0 0h32v32H0z"/>
        </clipPath>
      </defs>
    </symbol>
    <symbol id="disabled" width="32" height="32" fill="none" viewBox="0 0 32 32">
      <g clip-path="url(#a)">
        <path fill="#D9D9D9" d="M3.2 32a12.19 12.19 0 0 1 24.38 0h-3.047a9.143 9.143 0 0 0-18.285 0H3.2Zm12.19-13.714a9.14 9.14 0 0 1-9.142-9.143A9.14 9.14 0 0 1 15.39 0a9.14 9.14 0 0 1 9.143 9.143 9.14 9.14 0 0 1-9.143 9.143Zm0-3.048a6.094 6.094 0 0 0 6.096-6.095 6.094 6.094 0 0 0-6.096-6.095 6.094 6.094 0 0 0-6.095 6.095 6.094 6.094 0 0 0 6.095 6.095Z"/>
      </g>
      <defs>
        <clipPath id="a">
          <path fill="#fff" d="M0 0h32v32H0z"/>
        </clipPath>
      </defs>
    </symbol>
    <symbol id="focus" width="32" height="32" fill="none" viewBox="0 0 32 32">
      <g clip-path="url(#a)">
        <path fill="#750000" d="M3.2 32a12.19 12.19 0 0 1 24.38 0h-3.047a9.143 9.143 0 0 0-18.285 0H3.2Zm12.19-13.714a9.14 9.14 0 0 1-9.142-9.143A9.14 9.14 0 0 1 15.39 0a9.14 9.14 0 0 1 9.143 9.143 9.14 9.14 0 0 1-9.143 9.143Zm0-3.048a6.094 6.094 0 0 0 6.096-6.095 6.094 6.094 0 0 0-6.096-6.095 6.094 6.094 0 0 0-6.095 6.095 6.094 6.094 0 0 0 6.095 6.095Z"/>
      </g>
      <path stroke="#750000" d="M.5.5h31v31H.5z"/>
      <defs>
        <clipPath id="a">
          <path fill="#fff" d="M0 0h32v32H0z"/>
        </clipPath>
      </defs>
    </symbol>
  </defs>
</svg>
