<svg width="40" height="40" viewBox="0 0 40 40" fill="none" xmlns="http://www.w3.org/2000/svg">
<g filter="url(#filter0_d_11_28)">
<rect x="4" width="32" height="32" rx="8" fill="url(#paint0_linear_11_28)" shape-rendering="crispEdges"/>
<path d="M14.4615 4C15.4097 4 16.3233 4.19497 17.1536 4.58191C18.179 5.04172 19.2242 5.83643 20 7.14183C20.7758 5.83643 21.821 5.04172 22.8464 4.58191C23.6767 4.19497 24.5903 4 25.5385 4C29.1802 4 32 7.37499 32 11.358C32 15.8155 29.0155 19.9545 26.2439 22.8712C23.5768 25.6779 20.8983 27.5674 20.5404 27.8155C20.3817 27.9362 20.191 28 20 28C19.809 28 19.6183 27.9362 19.4596 27.8155C19.1017 27.5674 16.4231 25.6779 13.7561 22.8712C10.9845 19.9545 8 15.8155 8 11.358C8 7.37499 10.8198 4 14.4615 4Z" fill="url(#paint1_linear_11_28)"/>
</g>
<defs>
<filter id="filter0_d_11_28" x="0" y="0" width="40" height="40" filterUnits="userSpaceOnUse" color-interpolation-filters="sRGB">
<feFlood flood-opacity="0" result="BackgroundImageFix"/>
<feColorMatrix in="SourceAlpha" type="matrix" values="0 0 0 0 0 0 0 0 0 0 0 0 0 0 0 0 0 0 127 0" result="hardAlpha"/>
<feOffset dy="4"/>
<feGaussianBlur stdDeviation="2"/>
<feComposite in2="hardAlpha" operator="out"/>
<feColorMatrix type="matrix" values="0 0 0 0 0 0 0 0 0 0 0 0 0 0 0 0 0 0 0.25 0"/>
<feBlend mode="normal" in2="BackgroundImageFix" result="effect1_dropShadow_11_28"/>
<feBlend mode="normal" in="SourceGraphic" in2="effect1_dropShadow_11_28" result="shape"/>
</filter>
<linearGradient id="paint0_linear_11_28" x1="20" y1="0" x2="20" y2="32" gradientUnits="userSpaceOnUse">
<stop stop-color="white"/>
<stop offset="1" stop-color="#D9D9D9" stop-opacity="0.6"/>
</linearGradient>
<linearGradient id="paint1_linear_11_28" x1="20" y1="4" x2="20" y2="28" gradientUnits="userSpaceOnUse">
<stop stop-color="#FF1212"/>
<stop offset="0.692708" stop-color="#750000"/>
</linearGradient>
</defs>
</svg>
