<svg width="40" height="40" viewBox="0 0 40 40" fill="none" xmlns="http://www.w3.org/2000/svg">
<g filter="url(#filter0_d_11_26)">
<rect x="4" width="32" height="32" rx="8" fill="url(#paint0_linear_11_26)" shape-rendering="crispEdges"/>
<rect x="4.5" y="0.5" width="31" height="31" rx="7.5" stroke="#750000" shape-rendering="crispEdges"/>
<path fill-rule="evenodd" clip-rule="evenodd" d="M14.4615 5.95206C11.9856 5.95206 9.84615 8.29169 9.84615 11.358C9.84615 14.97 12.328 18.6141 15.0584 21.4876C17.0673 23.6017 19.089 25.1729 20 25.844C20.911 25.1729 22.9327 23.6017 24.9416 21.4876C27.672 18.6141 30.1538 14.97 30.1538 11.358C30.1538 8.29169 28.0144 5.95206 25.5385 5.95206C25.0753 5.95206 24.3333 6.03659 23.5722 6.3768C22.5283 6.8434 21.4038 7.80449 20.8929 9.86499C20.7865 10.2942 20.4196 10.5935 20 10.5935C19.5804 10.5935 19.2135 10.2942 19.1071 9.86499C18.5962 7.80449 17.4717 6.8434 16.4278 6.3768C15.6667 6.03659 14.9247 5.95206 14.4615 5.95206ZM17.1536 4.58191C16.3233 4.19497 15.4097 4 14.4615 4C10.8198 4 8 7.37498 8 11.358C8 15.8155 10.9845 19.9545 13.7561 22.8712C16.4231 25.6779 19.1017 27.5674 19.4596 27.8155C19.6183 27.9362 19.809 28 20 28C20.191 28 20.3817 27.9362 20.5404 27.8155C20.8983 27.5674 23.5768 25.6779 26.2439 22.8712C29.0155 19.9545 32 15.8155 32 11.358C32 7.37498 29.1802 4 25.5385 4C24.5903 4 23.6767 4.19497 22.8464 4.58191C21.821 5.04172 20.7758 5.83643 20 7.14183C19.2242 5.83643 18.179 5.04172 17.1536 4.58191Z" fill="#750000"/>
</g>
<defs>
<filter id="filter0_d_11_26" x="0" y="0" width="40" height="40" filterUnits="userSpaceOnUse" color-interpolation-filters="sRGB">
<feFlood flood-opacity="0" result="BackgroundImageFix"/>
<feColorMatrix in="SourceAlpha" type="matrix" values="0 0 0 0 0 0 0 0 0 0 0 0 0 0 0 0 0 0 127 0" result="hardAlpha"/>
<feOffset dy="4"/>
<feGaussianBlur stdDeviation="2"/>
<feComposite in2="hardAlpha" operator="out"/>
<feColorMatrix type="matrix" values="0 0 0 0 0 0 0 0 0 0 0 0 0 0 0 0 0 0 0.25 0"/>
<feBlend mode="normal" in2="BackgroundImageFix" result="effect1_dropShadow_11_26"/>
<feBlend mode="normal" in="SourceGraphic" in2="effect1_dropShadow_11_26" result="shape"/>
</filter>
<linearGradient id="paint0_linear_11_26" x1="20" y1="0" x2="20" y2="32" gradientUnits="userSpaceOnUse">
<stop stop-color="white"/>
<stop offset="1" stop-color="#D9D9D9" stop-opacity="0.6"/>
</linearGradient>
</defs>
</svg>
