<svg width="32" height="32" viewBox="0 0 32 32" fill="none" xmlns="http://www.w3.org/2000/svg">
<path fill-rule="evenodd" clip-rule="evenodd" d="M10 6C7.31778 6 5 8.39709 5 11.5387C5 15.2394 7.68863 18.973 10.6466 21.9171C12.8229 24.083 15.013 25.6929 16 26.3805C16.987 25.6929 19.1771 24.083 21.3534 21.9171C24.3114 18.973 27 15.2394 27 11.5387C27 8.39709 24.6822 6 22 6C21.4982 6 20.6945 6.0866 19.8699 6.43517C18.739 6.91323 17.5208 7.89792 16.9673 10.009C16.852 10.4488 16.4546 10.7554 16 10.7554C15.5454 10.7554 15.148 10.4488 15.0327 10.009C14.4792 7.89792 13.261 6.91323 12.1301 6.43517C11.3056 6.0866 10.5018 6 10 6ZM12.9164 4.5962C12.0169 4.19975 11.0272 4 10 4C6.05481 4 3 7.45787 3 11.5387C3 16.1056 6.23325 20.3463 9.23579 23.3346C12.1251 26.2102 15.0268 28.1461 15.4146 28.4003C15.5865 28.524 15.7931 28.5894 16 28.5894C16.2069 28.5894 16.4135 28.524 16.5854 28.4003C16.9731 28.1462 19.8749 26.2103 22.7642 23.3346C25.7667 20.3463 29 16.1056 29 11.5387C29 7.45787 25.9452 4 22 4C20.9728 4 19.9831 4.19975 19.0836 4.5962C17.9727 5.06731 16.8404 5.88153 16 7.21898C15.1596 5.88153 14.0273 5.06731 12.9164 4.5962Z" fill="#D9D9D9" fill-opacity="0.4"/>
</svg>
