<svg width="32"
    height="188"
    viewBox="0 0 32 188"
    fill="none"
    xmlns="http://www.w3.org/2000/svg">
    <g clip-path="url(#clip0_0_1)">
        <path
            d="M3.19995 32C3.19995 28.7669 4.4843 25.6662 6.77046 23.38C9.05662 21.0939 12.1573 19.8095 15.3904 19.8095C18.6235 19.8095 21.7242 21.0939 24.0104 23.38C26.2965 25.6662 27.5809 28.7669 27.5809 32H24.5333C24.5333 29.5752 23.57 27.2496 21.8554 25.535C20.1408 23.8204 17.8153 22.8571 15.3904 22.8571C12.9656 22.8571 10.6401 23.8204 8.92545 25.535C7.21083 27.2496 6.24757 29.5752 6.24757 32H3.19995ZM15.3904 18.2857C10.339 18.2857 6.24757 14.1943 6.24757 9.14286C6.24757 4.09143 10.339 0 15.3904 0C20.4419 0 24.5333 4.09143 24.5333 9.14286C24.5333 14.1943 20.4419 18.2857 15.3904 18.2857ZM15.3904 15.2381C18.758 15.2381 21.4857 12.5105 21.4857 9.14286C21.4857 5.77524 18.758 3.04762 15.3904 3.04762C12.0228 3.04762 9.29519 5.77524 9.29519 9.14286C9.29519 12.5105 12.0228 15.2381 15.3904 15.2381Z"
            fill="#750000" />
    </g>
    <g clip-path="url(#clip1_0_1)">
        <path
            d="M3.19995 84C3.19995 80.7669 4.4843 77.6662 6.77046 75.38C9.05662 73.0939 12.1573 71.8095 15.3904 71.8095C18.6235 71.8095 21.7242 73.0939 24.0104 75.38C26.2965 77.6662 27.5809 80.7669 27.5809 84H24.5333C24.5333 81.5752 23.57 79.2496 21.8554 77.535C20.1408 75.8204 17.8153 74.8571 15.3904 74.8571C12.9656 74.8571 10.6401 75.8204 8.92545 77.535C7.21083 79.2496 6.24757 81.5752 6.24757 84H3.19995ZM15.3904 70.2857C10.339 70.2857 6.24757 66.1943 6.24757 61.1429C6.24757 56.0914 10.339 52 15.3904 52C20.4419 52 24.5333 56.0914 24.5333 61.1429C24.5333 66.1943 20.4419 70.2857 15.3904 70.2857ZM15.3904 67.2381C18.758 67.2381 21.4857 64.5105 21.4857 61.1429C21.4857 57.7752 18.758 55.0476 15.3904 55.0476C12.0228 55.0476 9.29519 57.7752 9.29519 61.1429C9.29519 64.5105 12.0228 67.2381 15.3904 67.2381Z"
            fill="#7D7D7D" />
    </g>
    <g clip-path="url(#clip2_0_1)">
        <path
            d="M3.19995 136C3.19995 132.767 4.4843 129.666 6.77046 127.38C9.05662 125.094 12.1573 123.81 15.3904 123.81C18.6235 123.81 21.7242 125.094 24.0104 127.38C26.2965 129.666 27.5809 132.767 27.5809 136H24.5333C24.5333 133.575 23.57 131.25 21.8554 129.535C20.1408 127.82 17.8153 126.857 15.3904 126.857C12.9656 126.857 10.6401 127.82 8.92545 129.535C7.21083 131.25 6.24757 133.575 6.24757 136H3.19995ZM15.3904 122.286C10.339 122.286 6.24757 118.194 6.24757 113.143C6.24757 108.091 10.339 104 15.3904 104C20.4419 104 24.5333 108.091 24.5333 113.143C24.5333 118.194 20.4419 122.286 15.3904 122.286ZM15.3904 119.238C18.758 119.238 21.4857 116.51 21.4857 113.143C21.4857 109.775 18.758 107.048 15.3904 107.048C12.0228 107.048 9.29519 109.775 9.29519 113.143C9.29519 116.51 12.0228 119.238 15.3904 119.238Z"
            fill="#D9D9D9" />
    </g>
    <g clip-path="url(#clip3_0_1)">
        <path
            d="M3.19995 188C3.19995 184.767 4.4843 181.666 6.77046 179.38C9.05662 177.094 12.1573 175.81 15.3904 175.81C18.6235 175.81 21.7242 177.094 24.0104 179.38C26.2965 181.666 27.5809 184.767 27.5809 188H24.5333C24.5333 185.575 23.57 183.25 21.8554 181.535C20.1408 179.82 17.8153 178.857 15.3904 178.857C12.9656 178.857 10.6401 179.82 8.92545 181.535C7.21083 183.25 6.24757 185.575 6.24757 188H3.19995ZM15.3904 174.286C10.339 174.286 6.24757 170.194 6.24757 165.143C6.24757 160.091 10.339 156 15.3904 156C20.4419 156 24.5333 160.091 24.5333 165.143C24.5333 170.194 20.4419 174.286 15.3904 174.286ZM15.3904 171.238C18.758 171.238 21.4857 168.51 21.4857 165.143C21.4857 161.775 18.758 159.048 15.3904 159.048C12.0228 159.048 9.29519 161.775 9.29519 165.143C9.29519 168.51 12.0228 171.238 15.3904 171.238Z"
            fill="#750000" />
    </g>
    <rect x="0.5"
        y="156.5"
        width="31"
        height="31"
        stroke="#750000" />
    <defs>
        <clipPath id="clip0_0_1">
            <rect width="32"
                height="32"
                fill="white" />
        </clipPath>
        <clipPath id="clip1_0_1">
            <rect width="32"
                height="32"
                fill="white"
                transform="translate(0 52)" />
        </clipPath>
        <clipPath id="clip2_0_1">
            <rect width="32"
                height="32"
                fill="white"
                transform="translate(0 104)" />
        </clipPath>
        <clipPath id="clip3_0_1">
            <rect y="156"
                width="32"
                height="32"
                fill="white" />
        </clipPath>
    </defs>
</svg>